<?xml version="1.0" encoding="UTF-8"?>
<svg version="1.1" xmlns="http://www.w3.org/2000/svg" width="277" height="249">
<path d="M0 0 C0.33 10.23 0.66 20.46 1 31 C4.5578125 28.6796875 4.5578125 28.6796875 8.1875 26.3125 C13.61413976 23.07550827 17.50193925 21.19911154 23.9375 22.625 C29.36652987 24.463974 35.85888943 26.85888943 40 31 C40.09854655 32.64340867 40.12972411 34.2911461 40.125 35.9375 C40.12886719 37.28134766 40.12886719 37.28134766 40.1328125 38.65234375 C40 41 40 41 39 43 C38.91527579 44.78995835 38.89279028 46.58306311 38.90234375 48.375 C38.90556641 49.44234375 38.90878906 50.5096875 38.91210938 51.609375 C38.92048828 52.72828125 38.92886719 53.8471875 38.9375 55 C38.94201172 56.11890625 38.94652344 57.2378125 38.95117188 58.390625 C38.96330282 61.26046054 38.98101214 64.13020406 39 67 C39 76 39 85 39 94 C36.85423363 94.02685938 34.70837355 94.04633088 32.5625 94.0625 C31.36753906 94.07410156 30.17257813 94.08570313 28.94140625 94.09765625 C26 94 26 94 25 93 C24.91251793 91.07332493 24.89302666 89.14348139 24.90234375 87.21484375 C24.90717773 85.46010742 24.90717773 85.46010742 24.91210938 83.66992188 C24.92467773 81.82237305 24.92467773 81.82237305 24.9375 79.9375 C24.94201172 78.70193359 24.94652344 77.46636719 24.95117188 76.19335938 C24.96300392 73.12885883 24.97948827 70.06445279 25 67 C23.35 67 21.7 67 20 67 C20 75.58 20 84.16 20 93 C5.81 93 -8.38 93 -23 93 C-23 79.8 -23 66.6 -23 53 C-25.475 53.495 -25.475 53.495 -28 54 C-28 43.11 -28 32.22 -28 21 C-28.99 21 -29.98 21 -31 21 C-31.16677282 24.41656024 -31.16677282 24.41656024 -31 28 C-30.34 28.66 -29.68 29.32 -29 30 C-29 30.99 -29 31.98 -29 33 C-29.99 33.495 -29.99 33.495 -31 34 C-31 36.31 -31 38.62 -31 41 C-30.34 41.33 -29.68 41.66 -29 42 C-29 43.32 -29 44.64 -29 46 C-29.99 46.495 -29.99 46.495 -31 47 C-31.83918134 51.2721959 -32.05635253 54.5380024 -31.52734375 58.875 C-30.74242423 65.40187147 -30.85478018 71.93529766 -30.875 78.5 C-30.87113281 79.78648437 -30.86726563 81.07296875 -30.86328125 82.3984375 C-30.86457031 83.61789063 -30.86585937 84.83734375 -30.8671875 86.09375 C-30.86831543 87.20427734 -30.86944336 88.31480469 -30.87060547 89.45898438 C-31 92 -31 92 -32 93 C-34.18639453 93.07258946 -36.37500389 93.08373783 -38.5625 93.0625 C-39.76003906 93.05347656 -40.95757812 93.04445313 -42.19140625 93.03515625 C-43.58166016 93.01775391 -43.58166016 93.01775391 -45 93 C-45 81.66666667 -45 70.33333333 -45 59 C-45.02618408 57.85023682 -45.05236816 56.70047363 -45.0793457 55.51586914 C-45.16925861 51.55512824 -45.22707654 47.5945157 -45.2746582 43.63305664 C-45.299862 41.92098691 -45.33402572 40.20902536 -45.37719727 38.49731445 C-45.43779252 36.0304935 -45.46618647 33.56508489 -45.48828125 31.09765625 C-45.51408768 30.33195816 -45.5398941 29.56626007 -45.56648254 28.77735901 C-45.56762695 26.61352539 -45.56762695 26.61352539 -45 23 C-42.65307617 21.09936523 -42.65307617 21.09936523 -40 20 C-39.030625 19.443125 -38.06125 18.88625 -37.0625 18.3125 C-33.77362212 16.90298091 -31.53746276 16.74732409 -28 17 C-28 15.02 -28 13.04 -28 11 C-16.28125 5.140625 -16.28125 5.140625 -14.14453125 4.08398438 C-12.69165624 3.34960766 -11.25155539 2.58949762 -9.82421875 1.80664062 C-9.12941406 1.43216797 -8.43460938 1.05769531 -7.71875 0.671875 C-7.09935547 0.32737305 -6.47996094 -0.01712891 -5.84179688 -0.37207031 C-4 -1 -4 -1 0 0 Z M20 28 C20 30.97 20 33.94 20 37 C22.64 37 25.28 37 28 37 C27.34 36.67 26.68 36.34 26 36 C26.020625 35.05125 26.04125 34.1025 26.0625 33.125 C26.22551826 30.09333717 26.22551826 30.09333717 25 28 C23.35 28 21.7 28 20 28 Z M20 41 C20 43.97 20 46.94 20 50 C21.65 49.67 23.3 49.34 25 49 C25 46.36 25 43.72 25 41 C23.35 41 21.7 41 20 41 Z M20 53 C20 56.3 20 59.6 20 63 C22.64 63 25.28 63 28 63 C27.67 62.34 27.34 61.68 27 61 C26.34 61 25.68 61 25 61 C25 58.36 25 55.72 25 53 C23.35 53 21.7 53 20 53 Z " fill="#055B48" transform="translate(144,55)"/>
<path d="M0 0 C1.65845185 1.03324183 3.12017991 1.99517991 4.5 3.375 C4.57313567 5.90549402 4.59247527 8.40804837 4.5625 10.9375 C4.55798828 11.64841797 4.55347656 12.35933594 4.54882812 13.09179688 C4.53700864 14.85290013 4.51907263 16.61396036 4.5 18.375 C5.593125 18.49875 6.68625 18.6225 7.8125 18.75 C11.5 19.375 11.5 19.375 14.5 21.375 C14.6875 24 14.6875 24 14.5 26.375 C12.85 25.715 11.2 25.055 9.5 24.375 C9.17 35.265 8.84 46.155 8.5 57.375 C1.9 57.375 -4.7 57.375 -11.5 57.375 C-11.53738281 54.36632812 -11.57476562 51.35765625 -11.61328125 48.2578125 C-11.65945919 45.35197572 -11.71070637 42.44626968 -11.76245117 39.54052734 C-11.79575679 37.51717029 -11.823771 35.49371907 -11.84643555 33.47021484 C-11.87987835 30.56567148 -11.93218769 27.66199558 -11.98828125 24.7578125 C-11.99467117 23.84943634 -12.0010611 22.94106018 -12.00764465 22.00515747 C-12.02743881 21.16443695 -12.04723297 20.32371643 -12.06762695 19.45751953 C-12.08428154 18.34499313 -12.08428154 18.34499313 -12.10127258 17.20999146 C-12.36719253 14.96138164 -12.36719253 14.96138164 -15.5 13.375 C-15.83 27.895 -16.16 42.415 -16.5 57.375 C-29.37 57.375 -42.24 57.375 -55.5 57.375 C-55.5 56.055 -55.5 54.735 -55.5 53.375 C-49.89698423 52.50556652 -44.82706992 52.39952846 -39.1640625 52.84765625 C-37.91318848 52.9444165 -36.66231445 53.04117676 -35.37353516 53.14086914 C-33.95113525 53.25676392 -33.95113525 53.25676392 -32.5 53.375 C-32.53665771 52.28558105 -32.57331543 51.19616211 -32.61108398 50.07373047 C-32.73819893 46.01506118 -32.81829159 41.95656596 -32.88452148 37.89648438 C-32.91963149 36.14260227 -32.9673337 34.38892372 -33.02807617 32.63574219 C-33.1134269 30.10821305 -33.15277796 27.58339923 -33.18359375 25.0546875 C-33.21972275 24.27632538 -33.25585175 23.49796326 -33.29307556 22.6960144 C-33.29549009 19.31516844 -33.20719212 17.21960143 -30.98733521 14.56842041 C-29.22094785 13.03611657 -27.43700829 11.68253968 -25.5 10.375 C-24.63375 9.75625 -23.7675 9.1375 -22.875 8.5 C-20.21074875 7.23798625 -18.41302594 7.12531206 -15.5 7.375 C-15.25507812 6.776875 -15.01015625 6.17875 -14.7578125 5.5625 C-11.65433165 0.16514199 -5.73389477 -2.87729737 0 0 Z M-3.5 3.375 C-3.5 10.305 -3.5 17.235 -3.5 24.375 C-1.52 23.385 0.46 22.395 2.5 21.375 C2.17 20.715 1.84 20.055 1.5 19.375 C1.3012778 15.77150411 1.18140398 12.16983742 1.07421875 8.5625 C0.88472656 7.510625 0.69523437 6.45875 0.5 5.375 C-0.82 4.715 -2.14 4.055 -3.5 3.375 Z " fill="#0E5F4C" transform="translate(83.5,90.625)"/>
<path d="M0 0 C2.92915999 1.07796726 5.07460792 2.50208849 7.578125 4.36328125 C10.50028112 6.52000356 13.26930618 8.32039366 16.515625 9.92578125 C18.94163659 11.37888222 21.32219826 12.90023351 23.703125 14.42578125 C24.34443359 14.82925781 24.98574219 15.23273438 25.64648438 15.6484375 C30.39687864 18.68828853 30.39687864 18.68828853 31.515625 20.92578125 C31.60253501 23.77007482 31.63116302 26.58957301 31.61328125 29.43359375 C31.6118663 30.27421356 31.61045135 31.11483337 31.60899353 31.98092651 C31.60338737 34.670914 31.59083386 37.36081884 31.578125 40.05078125 C31.57311079 41.87239463 31.56854775 43.69400932 31.56445312 45.515625 C31.55341594 49.98570902 31.5361472 54.45573111 31.515625 58.92578125 C32.15483887 58.84851807 32.79405273 58.77125488 33.45263672 58.69165039 C38.61715513 58.11315882 43.44544635 57.86587053 48.640625 58.36328125 C49.75695312 58.46511719 50.87328125 58.56695312 52.0234375 58.671875 C52.84585938 58.75566406 53.66828125 58.83945313 54.515625 58.92578125 C54.515625 60.24578125 54.515625 61.56578125 54.515625 62.92578125 C48.97973967 62.950429 43.443886 62.96861621 37.90795898 62.98071289 C36.0231877 62.98575369 34.13842035 62.99258623 32.25366211 63.0012207 C29.55060864 63.01329742 26.84760669 63.01901193 24.14453125 63.0234375 C23.29661514 63.02859879 22.44869904 63.03376007 21.5750885 63.03907776 C19.55491432 63.0392732 17.53484566 62.98784336 15.515625 62.92578125 C13.97331523 61.38347148 14.35315013 59.92168415 14.31030273 57.77319336 C14.29035751 56.8923558 14.27041229 56.01151825 14.24986267 55.10398865 C14.23315018 54.14670364 14.21643768 53.18941864 14.19921875 52.203125 C14.17843765 51.22791397 14.15765656 50.25270294 14.13624573 49.24794006 C14.07064088 46.11979495 14.01181472 42.99156303 13.953125 39.86328125 C13.90995017 37.74803775 13.86633623 35.63280316 13.82226562 33.51757812 C13.71494845 28.32040538 13.6132028 23.12314548 13.515625 17.92578125 C11.535625 18.91578125 11.535625 18.91578125 9.515625 19.92578125 C9.515625 34.44578125 9.515625 48.96578125 9.515625 63.92578125 C8.195625 63.59578125 6.875625 63.26578125 5.515625 62.92578125 C5.515625 53.02578125 5.515625 43.12578125 5.515625 32.92578125 C4.855625 32.92578125 4.195625 32.92578125 3.515625 32.92578125 C-0.35547245 28.67701575 -2.62663518 25.84638576 -2.58203125 19.9140625 C-2.57880859 19.15673828 -2.57558594 18.39941406 -2.57226562 17.61914062 C-2.56388672 16.83345703 -2.55550781 16.04777344 -2.546875 15.23828125 C-2.54236328 14.44099609 -2.53785156 13.64371094 -2.53320312 12.82226562 C-2.5214335 10.85673868 -2.50349848 8.8912504 -2.484375 6.92578125 C-5.65683456 8.87335952 -5.65683456 8.87335952 -7.09375 12.1875 C-7.14015625 12.98800781 -7.1865625 13.78851563 -7.234375 14.61328125 C-7.29109375 15.42152344 -7.3478125 16.22976562 -7.40625 17.0625 C-7.43203125 17.67738281 -7.4578125 18.29226562 -7.484375 18.92578125 C-8.804375 18.26578125 -10.124375 17.60578125 -11.484375 16.92578125 C-12.07806738 13.75942191 -12.20264487 11.08034488 -11.484375 7.92578125 C-8.58632142 4.09886435 -5.09670264 -0.15225998 0 0 Z " fill="#04503F" transform="translate(203.484375,85.07421875)"/>
<path d="M0 0 C4.09274885 1.57413417 7.35956013 4.54102377 10 8 C10 8.99 10 9.98 10 11 C10.61875 11.12375 11.2375 11.2475 11.875 11.375 C14 12 14 12 16 14 C16.17517747 16.72485728 16.23149133 19.34659362 16.1953125 22.0703125 C16.1924826 22.86654022 16.18965271 23.66276794 16.18673706 24.48312378 C16.1755264 27.03056763 16.15042062 29.57766211 16.125 32.125 C16.11497133 33.85025535 16.10584528 35.57551619 16.09765625 37.30078125 C16.07558422 41.53398914 16.04104867 45.7669353 16 50 C12.71638718 50.87852198 9.78394066 51.1645287 6.375 51.1875 C5.41335937 51.20167969 4.45171875 51.21585938 3.4609375 51.23046875 C1 51 1 51 -1 49 C-1.24723816 46.94395447 -1.24723816 46.94395447 -1.24291992 44.38256836 C-1.24599655 43.42495102 -1.24907318 42.46733368 -1.25224304 41.48069763 C-1.24505753 40.44421585 -1.23787201 39.40773407 -1.23046875 38.33984375 C-1.23001053 37.27963516 -1.22955231 36.21942657 -1.2290802 35.12709045 C-1.22605571 32.88346234 -1.21816356 30.63983638 -1.20581055 28.39624023 C-1.18755733 24.94832991 -1.18530079 21.50068796 -1.18554688 18.05273438 C-1.18063176 15.87760183 -1.17480347 13.70247111 -1.16796875 11.52734375 C-1.16685593 10.48883774 -1.1657431 9.45033173 -1.16459656 8.38035583 C-1.15821671 7.42589066 -1.15183685 6.47142548 -1.14526367 5.48803711 C-1.14145187 4.64357529 -1.13764008 3.79911346 -1.13371277 2.92906189 C-1 1 -1 1 0 0 Z " fill="#4F8A7A" transform="translate(185,98)"/>
<path d="M0 0 C1.98 0 3.96 0 6 0 C6 0.99 6 1.98 6 3 C5.34 3 4.68 3 4 3 C4.15597656 3.63808594 4.31195313 4.27617188 4.47265625 4.93359375 C4.66730469 5.75988281 4.86195313 6.58617188 5.0625 7.4375 C5.25972656 8.26121094 5.45695313 9.08492187 5.66015625 9.93359375 C5.77230469 10.61550781 5.88445312 11.29742187 6 12 C5.67 12.33 5.34 12.66 5 13 C8.465 14.485 8.465 14.485 12 16 C12 16.66 12 17.32 12 18 C13.65 18 15.3 18 17 18 C17 31 17 44 17 57 C14.85423363 57.02685938 12.70837355 57.04633088 10.5625 57.0625 C9.36753906 57.07410156 8.17257813 57.08570313 6.94140625 57.09765625 C4 57 4 57 3 56 C2.91251793 54.07332493 2.89302666 52.14348139 2.90234375 50.21484375 C2.90717773 48.46010742 2.90717773 48.46010742 2.91210938 46.66992188 C2.92048828 45.43822266 2.92886719 44.20652344 2.9375 42.9375 C2.94201172 41.70193359 2.94652344 40.46636719 2.95117188 39.19335938 C2.96300392 36.12885883 2.97948827 33.06445279 3 30 C1.68 30 0.36 30 -1 30 C-1 28.68 -1 27.36 -1 26 C0.98 25.67 2.96 25.34 5 25 C4.34 24.67 3.68 24.34 3 24 C2.59270772 21.67843403 2.25561323 19.3431213 2 17 C1.01 16.67 0.02 16.34 -1 16 C-0.67 14.68 -0.34 13.36 0 12 C0.99 12 1.98 12 3 12 C3 9.36 3 6.72 3 4 C1.68 4 0.36 4 -1 4 C-0.67 2.68 -0.34 1.36 0 0 Z " fill="#105B4A" transform="translate(166,92)"/>
<path d="M0 0 C2.92915999 1.07796726 5.07460792 2.50208849 7.578125 4.36328125 C10.49507022 6.51615762 13.2762661 8.31646222 16.515625 9.92578125 C17.88649415 11.220491 19.22903337 12.54729022 20.515625 13.92578125 C19.525625 13.92578125 18.535625 13.92578125 17.515625 13.92578125 C17.185625 15.57578125 16.855625 17.22578125 16.515625 18.92578125 C15.855625 18.26578125 15.195625 17.60578125 14.515625 16.92578125 C14.061875 17.42078125 13.608125 17.91578125 13.140625 18.42578125 C11.515625 19.92578125 11.515625 19.92578125 9.515625 19.92578125 C9.515625 34.44578125 9.515625 48.96578125 9.515625 63.92578125 C8.195625 63.59578125 6.875625 63.26578125 5.515625 62.92578125 C5.515625 53.02578125 5.515625 43.12578125 5.515625 32.92578125 C4.855625 32.92578125 4.195625 32.92578125 3.515625 32.92578125 C-0.35547245 28.67701575 -2.62663518 25.84638576 -2.58203125 19.9140625 C-2.57880859 19.15673828 -2.57558594 18.39941406 -2.57226562 17.61914062 C-2.56388672 16.83345703 -2.55550781 16.04777344 -2.546875 15.23828125 C-2.54236328 14.44099609 -2.53785156 13.64371094 -2.53320312 12.82226562 C-2.5214335 10.85673868 -2.50349848 8.8912504 -2.484375 6.92578125 C-5.65683456 8.87335952 -5.65683456 8.87335952 -7.09375 12.1875 C-7.14015625 12.98800781 -7.1865625 13.78851563 -7.234375 14.61328125 C-7.29109375 15.42152344 -7.3478125 16.22976562 -7.40625 17.0625 C-7.43203125 17.67738281 -7.4578125 18.29226562 -7.484375 18.92578125 C-8.804375 18.26578125 -10.124375 17.60578125 -11.484375 16.92578125 C-12.07806738 13.75942191 -12.20264487 11.08034488 -11.484375 7.92578125 C-8.58632142 4.09886435 -5.09670264 -0.15225998 0 0 Z " fill="#06503F" transform="translate(203.484375,85.07421875)"/>
<path d="M0 0 C0.99 0.66 1.98 1.32 3 2 C3.1875 4.625 3.1875 4.625 3 7 C1.35 6.34 -0.3 5.68 -2 5 C-2.33 15.89 -2.66 26.78 -3 38 C-7.95 38 -12.9 38 -18 38 C-20.65453284 35.34546716 -19.58269604 28.55693197 -19.6796875 24.97387695 C-19.74893711 22.96828336 -19.88180887 20.96521288 -20.015625 18.96289062 C-20.24766612 9.37669183 -20.24766612 9.37669183 -16.56835938 5.31689453 C-10.81079986 1.10402317 -7.08260415 -1.58997236 0 0 Z " fill="#015543" transform="translate(95,110)"/>
<path d="M0 0 C3.36539571 2.8846249 5.77797431 5.5667643 6.57421875 10.0546875 C6.76830615 14.03013279 6.32012835 16.57658622 4.6875 20.25 C1.48717788 23.61033823 -1.21908158 25.16334362 -5.8125 25.875 C-10.75642664 25.67724293 -13.96276267 24.56541158 -17.8125 21.4375 C-20.71300126 17.72123276 -21.16259904 14.61923476 -21.09375 9.9375 C-20.49253396 5.5285824 -17.8871469 2.79612591 -14.625 0 C-9.69810866 -1.97075654 -4.92689134 -1.97075654 0 0 Z M-11.6875 8 C-13.11038457 9.9597639 -13.11038457 9.9597639 -12.5625 13 C-12.10316476 15.75290841 -12.10316476 15.75290841 -10.8125 16.875 C-7.35437831 17.20838596 -7.35437831 17.20838596 -3.8125 16.875 C-1.51612221 14.11604365 -1.51612221 14.11604365 -2.0625 11.3125 C-2.65058052 8.72499433 -2.65058052 8.72499433 -4.8125 6.875 C-7.64636167 6.5116844 -9.21772151 6.5181329 -11.6875 8 Z " fill="#105A46" transform="translate(181.8125,170.125)"/>
<path d="M0 0 C2.81256281 -0.02684312 5.62487241 -0.04676188 8.4375 -0.0625 C9.23994141 -0.07087891 10.04238281 -0.07925781 10.86914062 -0.08789062 C12.91295221 -0.0965143 14.95683902 -0.0522815 17 0 C17.33 0.33 17.66 0.66 18 1 C17.69699525 3.33746522 17.36141955 5.67085177 17 8 C17 8.99 17 9.98 17 11 C16.68578929 13.00309329 16.3548954 15.00371336 16 17 C13.36 17 10.72 17 8 17 C8 17.66 8 18.32 8 19 C8.63808594 18.98839844 9.27617187 18.97679687 9.93359375 18.96484375 C10.75988281 18.95582031 11.58617187 18.94679687 12.4375 18.9375 C13.26121094 18.92589844 14.08492188 18.91429687 14.93359375 18.90234375 C17 19 17 19 18 20 C18.04080783 21.99958364 18.04254356 24.00045254 18 26 C14.65109379 27.11630207 12.02460739 27.16765424 8.5 27.1875 C7.3553125 27.20167969 6.210625 27.21585938 5.03125 27.23046875 C2 27 2 27 -1 25 C-1.35644531 22.69335938 -1.35644531 22.69335938 -1.328125 19.84375 C-1.32296875 18.82152344 -1.3178125 17.79929688 -1.3125 16.74609375 C-1.291875 15.67488281 -1.27125 14.60367188 -1.25 13.5 C-1.24484375 12.42878906 -1.2396875 11.35757813 -1.234375 10.25390625 C-1.15421895 2.3084379 -1.15421895 2.3084379 0 0 Z " fill="#0C5644" transform="translate(245,169)"/>
<path d="M0 0 C0.99 0 1.98 0 3 0 C4.07496429 7.84894563 4.14937824 15.58519738 4.125 23.5 C4.12886719 24.78648437 4.13273437 26.07296875 4.13671875 27.3984375 C4.13542969 28.61789063 4.13414063 29.83734375 4.1328125 31.09375 C4.13168457 32.20427734 4.13055664 33.31480469 4.12939453 34.45898438 C4 37 4 37 3 38 C-1.29 38 -5.58 38 -10 38 C-10 27.44 -10 16.88 -10 6 C-9.01 5.67 -8.02 5.34 -7 5 C-6.67 4.34 -6.34 3.68 -6 3 C-6 3.66 -6 4.32 -6 5 C-5.4225 4.67 -4.845 4.34 -4.25 4 C-2 3 -2 3 2 3 C2 2.34 2 1.68 2 1 C1.34 0.67 0.68 0.34 0 0 Z " fill="#055845" transform="translate(109,110)"/>
<path d="M0 0 C1.91015625 0.7421875 1.91015625 0.7421875 4.0625 1.875 C5.13177734 2.42800781 5.13177734 2.42800781 6.22265625 2.9921875 C8 4 8 4 9 5 C9.15313272 7.4942965 9.23156517 9.94188493 9.25 12.4375 C9.270625 13.13166016 9.29125 13.82582031 9.3125 14.54101562 C9.328125 16.55859375 9.328125 16.55859375 9 20 C8.01 20.66 7.02 21.32 6 22 C5 21 5 21 4.90234375 17.83984375 C4.91394531 16.55207031 4.92554687 15.26429687 4.9375 13.9375 C4.94652344 12.64714844 4.95554687 11.35679688 4.96484375 10.02734375 C4.97644531 9.02832031 4.98804687 8.02929688 5 7 C4.01 6.67 3.02 6.34 2 6 C1.98541748 6.59538574 1.97083496 7.19077148 1.95581055 7.80419922 C1.88145656 10.49513051 1.78475813 13.18480333 1.6875 15.875 C1.65366211 17.28072266 1.65366211 17.28072266 1.61914062 18.71484375 C1.58369141 19.61074219 1.54824219 20.50664063 1.51171875 21.4296875 C1.48553467 22.25710449 1.45935059 23.08452148 1.43237305 23.93701172 C1 26 1 26 -2 28 C-2.51254128 31.2001106 -2.51254128 31.2001106 -2.51171875 34.9765625 C-2.52966995 35.66181 -2.54762115 36.3470575 -2.56611633 37.05307007 C-2.62033708 39.24365059 -2.65415053 41.4340119 -2.6875 43.625 C-2.72066294 45.10940559 -2.75515165 46.59378221 -2.79101562 48.078125 C-2.87606815 51.71853912 -2.94282356 55.35902944 -3 59 C-4.32 59 -5.64 59 -7 59 C-7.01981934 57.73816895 -7.03963867 56.47633789 -7.06005859 55.17626953 C-7.13598765 50.50581508 -7.22472412 45.8356774 -7.31738281 41.16552734 C-7.35572521 39.14215334 -7.39056871 37.11870994 -7.421875 35.09521484 C-7.46741169 32.19082797 -7.52542409 29.28692106 -7.5859375 26.3828125 C-7.59748871 25.47443634 -7.60903992 24.56606018 -7.62094116 23.63015747 C-7.64081085 22.78943695 -7.66068054 21.94871643 -7.68115234 21.08251953 C-7.70113785 19.96999313 -7.70113785 19.96999313 -7.7215271 18.83499146 C-7.85199729 16.7526636 -7.85199729 16.7526636 -10 15 C-10.56520003 12.34462628 -10.73788198 9.70855287 -11 7 C-9.54261898 6.01941648 -8.08406325 5.04057868 -6.625 4.0625 C-5.81289062 3.51722656 -5.00078125 2.97195312 -4.1640625 2.41015625 C-2 1 -2 1 0 0 Z " fill="#105445" transform="translate(79,89)"/>
<path d="M0 0 C3.28090599 1.49780491 5.58895425 3.33515996 8 6 C7.3125 7.9375 7.3125 7.9375 6 10 C3.5625 10.875 3.5625 10.875 1 11 C0.01 10.34 -0.98 9.68 -2 9 C-4.58380177 8.74969023 -4.58380177 8.74969023 -7 9 C-8.34404775 10.11836224 -8.34404775 10.11836224 -8.125 13 C-8.34404775 15.88163776 -8.34404775 15.88163776 -7 17 C-2.77610983 17.28632249 -2.77610983 17.28632249 1.125 15.875 C3 15 3 15 5.1875 15.6875 C7 17 7 17 8 20 C4.56468261 24.21103422 1.73346378 25.97203294 -3.65625 26.90625 C-7.62090479 27.06483619 -10.66425272 26.12343281 -14 24 C-17.1331313 20.71021213 -18.26669524 18.01474095 -18.5625 13.5625 C-18.34164869 8.72013064 -16.49694658 5.32209926 -13 2 C-8.81172454 -0.59068585 -4.79377182 -0.56599095 0 0 Z " fill="#1D614D" transform="translate(42,169)"/>
<path d="M0 0 C3.5 1.6875 3.5 1.6875 6 4 C6.875 6.75 6.875 6.75 7 9 C4.70221327 10.3950848 3.5207033 11.07438619 0.8125 10.6875 C-1 10 -1 10 -2 9 C-4.45809998 8.7499227 -4.45809998 8.7499227 -7 9 C-9.26839983 10.83265325 -9.26839983 10.83265325 -9.1875 13.5625 C-9.27003323 15.94689723 -9.27003323 15.94689723 -8 17 C-5.67182036 17.36760731 -3.3381615 17.70241581 -1 18 C-0.67 17.01 -0.34 16.02 0 15 C4.75 15.75 4.75 15.75 7 18 C6.9375 20.4375 6.9375 20.4375 6 23 C2.3083258 26.04020228 -1.28203914 26.75168627 -6 27 C-11.06219929 25.98756014 -13.63050521 23.85085118 -17 20 C-18.73704155 16.5259169 -18.46041616 12.79843331 -18 9 C-14.05683754 1.11367509 -8.50230795 -1.34482903 0 0 Z " fill="#1E6451" transform="translate(230,169)"/>
<path d="M0 0 C2.64 0 5.28 0 8 0 C9.32 3.63 10.64 7.26 12 11 C13.32 7.37 14.64 3.74 16 0 C18.64 0 21.28 0 24 0 C23.43737174 6.21027647 21.99833221 11.62830173 19.9375 17.5 C19.65583984 18.32242188 19.37417969 19.14484375 19.08398438 19.9921875 C18.39622757 21.99717343 17.69908924 23.99893723 17 26 C10.375 27.125 10.375 27.125 7 26 C6.0168457 24.03808594 6.0168457 24.03808594 5.17578125 21.484375 C4.86962891 20.56269531 4.56347656 19.64101562 4.24804688 18.69140625 C3.78495117 17.23541016 3.78495117 17.23541016 3.3125 15.75 C2.83200195 14.31720703 2.83200195 14.31720703 2.34179688 12.85546875 C0.88869343 8.40011107 -0.19275206 4.72533006 0 0 Z " fill="#135B48" transform="translate(132,169)"/>
<path d="M0 0 C5.24555629 -0.43712969 5.24555629 -0.43712969 8 0 C10.2969506 2.23805444 11.57977336 4.15954672 13 7 C13.99 4.69 14.98 2.38 16 0 C18.97 0 21.94 0 25 0 C24.39692046 4.12355639 22.98764965 7.16688298 21 10.8125 C18.43224703 15.77070872 17.40821333 19.48912 17 25 C15 27 15 27 12.5 27.25 C10 27 10 27 8 25 C7.9071875 23.1128125 7.9071875 23.1128125 7.8125 21.1875 C7.33375225 15.29890273 4.42178204 10.80045796 1.49609375 5.8203125 C0 3 0 3 0 0 Z " fill="#0F5A44" transform="translate(101,169)"/>
<path d="M0 0 C0.66773438 0.14695312 1.33546875 0.29390625 2.0234375 0.4453125 C7.74707944 1.74707944 7.74707944 1.74707944 10 4 C10.23046875 6.3125 10.23046875 6.3125 10.1875 9 C10.18105469 9.886875 10.17460937 10.77375 10.16796875 11.6875 C10 14 10 14 9 16 C8.92966231 17.87379605 8.9156978 19.75001102 8.9375 21.625 C8.94652344 22.62789062 8.95554688 23.63078125 8.96484375 24.6640625 C8.97644531 25.43492188 8.98804688 26.20578125 9 27 C7.35 27.33 5.7 27.66 4 28 C4 27.01 4 26.02 4 25 C3.01 25.33 2.02 25.66 1 26 C-1.6875 24.5625 -1.6875 24.5625 -4 23 C-3.67 22.34 -3.34 21.68 -3 21 C-3.09723451 19.00978479 -3.09723451 19.00978479 -3.4375 16.875 C-3.623125 15.59625 -3.80875 14.3175 -4 13 C-3.34 13 -2.68 13 -2 13 C-2 12.01 -2 11.02 -2 10 C-2.66 9.67 -3.32 9.34 -4 9 C-4.59355614 6.35139573 -4.74209269 3.70802678 -5 1 C-6.65 1 -8.3 1 -10 1 C-10 0.67 -10 0.34 -10 0 C-6.24332818 -0.96600133 -3.74433186 -0.95785234 0 0 Z " fill="#0C5846" transform="translate(174,82)"/>
<path d="M0 0 C6.6 0 13.2 0 20 0 C21 6 21 6 20 8 C18.02 8 16.04 8 14 8 C14 13.94 14 19.88 14 26 C8 27 8 27 6 26 C6 20.06 6 14.12 6 8 C4.02 8 2.04 8 0 8 C0 5.36 0 2.72 0 0 Z " fill="#156150" transform="translate(74,169)"/>
<path d="M0 0 C0.99 0.33 1.98 0.66 3 1 C3.94337376 3.83012127 4.12172829 5.54299918 4.11352539 8.47143555 C4.11341209 9.82249641 4.11341209 9.82249641 4.11329651 11.20085144 C4.10813522 12.16968765 4.10297394 13.13852386 4.09765625 14.13671875 C4.0962413 15.13129593 4.09482635 16.12587311 4.09336853 17.15058899 C4.08776761 20.32958982 4.07521496 23.50852043 4.0625 26.6875 C4.05748512 28.84179586 4.05292219 30.99609282 4.04882812 33.15039062 C4.03779788 38.43361774 4.02105886 43.71680385 4 49 C4.66 49.33 5.32 49.66 6 50 C3.625 50.625 3.625 50.625 1 51 C-1 49 -1 49 -1.24723816 46.94395447 C-1.24581314 46.09869705 -1.24438812 45.25343964 -1.24291992 44.38256836 C-1.24599655 43.42495102 -1.24907318 42.46733368 -1.25224304 41.48069763 C-1.24505753 40.44421585 -1.23787201 39.40773407 -1.23046875 38.33984375 C-1.23001053 37.27963516 -1.22955231 36.21942657 -1.2290802 35.12709045 C-1.22605571 32.88346234 -1.21816356 30.63983638 -1.20581055 28.39624023 C-1.18755733 24.94832991 -1.18530079 21.50068796 -1.18554688 18.05273438 C-1.18063176 15.87760183 -1.17480347 13.70247111 -1.16796875 11.52734375 C-1.16685593 10.48883774 -1.1657431 9.45033173 -1.16459656 8.38035583 C-1.15821671 7.42589066 -1.15183685 6.47142548 -1.14526367 5.48803711 C-1.14145187 4.64357529 -1.13764008 3.79911346 -1.13371277 2.92906189 C-1 1 -1 1 0 0 Z " fill="#0F6358" transform="translate(185,98)"/>
<path d="M0 0 C2.64 0 5.28 0 8 0 C9 1 9 1 9.11352539 3.40844727 C9.10828857 4.45057373 9.10305176 5.4927002 9.09765625 6.56640625 C9.09443359 7.69111328 9.09121094 8.81582031 9.08789062 9.97460938 C9.07951172 11.15861328 9.07113281 12.34261719 9.0625 13.5625 C9.05798828 14.75037109 9.05347656 15.93824219 9.04882812 17.16210938 C9.03699675 20.10812226 9.02051287 23.05403681 9 26 C2.25 27.125 2.25 27.125 0 26 C0 17.42 0 8.84 0 0 Z " fill="#196251" transform="translate(58,169)"/>
<path d="M0 0 C2.64 0 5.28 0 8 0 C8 8.58 8 17.16 8 26 C2 27 2 27 0 26 C0 17.42 0 8.84 0 0 Z " fill="#236451" transform="translate(196,169)"/>
<path d="M0 0 C3.5 1.6875 3.5 1.6875 6 4 C6.875 6.75 6.875 6.75 7 9 C4.70221327 10.3950848 3.5207033 11.07438619 0.8125 10.6875 C-1 10 -1 10 -2 9 C-5.53308262 8.71353384 -8.11522373 8.83641779 -11 11 C-11.81171228 13.55519921 -11.81171228 13.55519921 -12 16 C-12.33 16 -12.66 16 -13 16 C-13 14.02 -13 12.04 -13 10 C-13.99 10.495 -13.99 10.495 -15 11 C-15.40729228 13.32156597 -15.74438677 15.6568787 -16 18 C-16.66 18 -17.32 18 -18 18 C-18.37695208 13.28809898 -18.46314703 9.92629407 -16.3125 5.625 C-11.52650421 0.19224802 -7.08072007 -1.1199733 0 0 Z " fill="#115741" transform="translate(230,169)"/>
<path d="M0 0 C0.33 0 0.66 0 1 0 C1.0825 0.94875 1.165 1.8975 1.25 2.875 C1.65497446 6.04253362 1.65497446 6.04253362 3.7890625 7.31640625 C5.98417235 8.23371304 5.98417235 8.23371304 8.0703125 7.28515625 C8.74835938 6.88167969 9.42640625 6.47820312 10.125 6.0625 C12.1953125 4.84765625 12.1953125 4.84765625 14 4 C14.66 4.33 15.32 4.66 16 5 C16 6.32 16 7.64 16 9 C15.01 9.495 15.01 9.495 14 10 C13.835 11.155 13.67 12.31 13.5 13.5 C13.335 14.655 13.17 15.81 13 17 C12.34 17.33 11.68 17.66 11 18 C11.33 18.99 11.66 19.98 12 21 C4.5 23.125 4.5 23.125 0 22 C0 14.74 0 7.48 0 0 Z " fill="#175E4D" transform="translate(99,92)"/>
<path d="M0 0 C1.98 0 3.96 0 6 0 C6 0.99 6 1.98 6 3 C5.34 3 4.68 3 4 3 C4.15597656 3.63808594 4.31195313 4.27617188 4.47265625 4.93359375 C4.66730469 5.75988281 4.86195313 6.58617188 5.0625 7.4375 C5.25972656 8.26121094 5.45695313 9.08492187 5.66015625 9.93359375 C5.77230469 10.61550781 5.88445312 11.29742187 6 12 C5.67 12.33 5.34 12.66 5 13 C8.465 14.485 8.465 14.485 12 16 C12 16.66 12 17.32 12 18 C13.65 18 15.3 18 17 18 C17 21.63 17 25.26 17 29 C15.35 28.34 13.7 27.68 12 27 C10.96875 26.835 9.9375 26.67 8.875 26.5 C6 26 6 26 3 24 C2.3125 20.375 2.3125 20.375 2 17 C1.01 16.67 0.02 16.34 -1 16 C-0.67 14.68 -0.34 13.36 0 12 C0.99 12 1.98 12 3 12 C3 9.36 3 6.72 3 4 C1.68 4 0.36 4 -1 4 C-0.67 2.68 -0.34 1.36 0 0 Z " fill="#156051" transform="translate(166,92)"/>
<path d="M0 0 C3.28090599 1.49780491 5.58895425 3.33515996 8 6 C7.1875 7.9375 7.1875 7.9375 6 10 C5.01 10.33 4.02 10.66 3 11 C2.0925 10.34 1.185 9.68 0.25 9 C-2.91647831 6.61986868 -2.91647831 6.61986868 -6.875 7.25 C-7.90625 7.4975 -8.9375 7.745 -10 8 C-10.66 11.3 -11.32 14.6 -12 18 C-13.32 17.67 -14.64 17.34 -16 17 C-17.59685607 8.06107745 -17.59685607 8.06107745 -15.3125 4 C-10.48073677 -0.17882225 -6.23510356 -0.73616607 0 0 Z " fill="#0A5943" transform="translate(42,169)"/>
<path d="M0 0 C1.485 0.99 1.485 0.99 3 2 C3.33792536 4.61677492 3.48886089 7.00936392 3.51171875 9.6328125 C3.52966995 10.38464813 3.54762115 11.13648376 3.56611633 11.91110229 C3.62035781 14.31567756 3.65415792 16.72005285 3.6875 19.125 C3.72066102 20.75393417 3.75514955 22.3828419 3.79101562 24.01171875 C3.87609162 28.00766846 3.94283578 32.00355746 4 36 C4.66 33.69 5.32 31.38 6 29 C6.66 29 7.32 29 8 29 C8.06058594 29.88042969 8.12117187 30.76085937 8.18359375 31.66796875 C8.26738281 32.82941406 8.35117188 33.99085938 8.4375 35.1875 C8.55931641 36.91033203 8.55931641 36.91033203 8.68359375 38.66796875 C8.95403812 41.51598171 9.37521747 44.21210482 10 47 C3.25 48.125 3.25 48.125 1 47 C0.67 31.49 0.34 15.98 0 0 Z M8 43 C9 45 9 45 9 45 Z " fill="#498B79" transform="translate(188,100)"/>
<path d="M0 0 C1.64706553 0.64268437 3.29262175 1.28923802 4.9375 1.9375 C5.85402344 2.29714844 6.77054688 2.65679687 7.71484375 3.02734375 C10 4 10 4 11 5 C11.07226502 6.85287502 11.0838122 8.70833878 11.0625 10.5625 C11.05347656 11.57441406 11.04445312 12.58632812 11.03515625 13.62890625 C11.02355469 14.41136719 11.01195312 15.19382812 11 16 C9.35 16.33 7.7 16.66 6 17 C6 16.01 6 15.02 6 14 C5.01 14.33 4.02 14.66 3 15 C0.3125 13.5625 0.3125 13.5625 -2 12 C-1.67 11.34 -1.34 10.68 -1 10 C-1.09723451 8.00978479 -1.09723451 8.00978479 -1.4375 5.875 C-1.623125 4.59625 -1.80875 3.3175 -2 2 C-1.34 2 -0.68 2 0 2 C0 1.34 0 0.68 0 0 Z " fill="#145C4C" transform="translate(172,93)"/>
<path d="M0 0 C0.33 0 0.66 0 1 0 C1 14.85 1 29.7 1 45 C-0.32 44.67 -1.64 44.34 -3 44 C-3 34.1 -3 24.2 -3 14 C-2.34 14 -1.68 14 -1 14 C-1.01160156 13.15695313 -1.02320313 12.31390625 -1.03515625 11.4453125 C-1.04417969 10.34960938 -1.05320313 9.25390625 -1.0625 8.125 C-1.07410156 7.03445312 -1.08570313 5.94390625 -1.09765625 4.8203125 C-1 2 -1 2 0 0 Z " fill="#609D86" transform="translate(212,104)"/>
<path d="M0 0 C1.91015625 0.7421875 1.91015625 0.7421875 4.0625 1.875 C5.13177734 2.42800781 5.13177734 2.42800781 6.22265625 2.9921875 C8 4 8 4 9 5 C9.15313272 7.4942965 9.23156517 9.94188493 9.25 12.4375 C9.270625 13.13166016 9.29125 13.82582031 9.3125 14.54101562 C9.328125 16.55859375 9.328125 16.55859375 9 20 C8.01 20.66 7.02 21.32 6 22 C5 21 5 21 4.90234375 17.83984375 C4.91974609 15.90818359 4.91974609 15.90818359 4.9375 13.9375 C4.94652344 12.64714844 4.95554687 11.35679688 4.96484375 10.02734375 C4.97644531 9.02832031 4.98804687 8.02929688 5 7 C4.01 6.67 3.02 6.34 2 6 C1.67 12.27 1.34 18.54 1 25 C0.34 25 -0.32 25 -1 25 C-1 18.07 -1 11.14 -1 4 C-1.66 4 -2.32 4 -3 4 C-2.67 3.01 -2.34 2.02 -2 1 C-1.34 0.67 -0.68 0.34 0 0 Z " fill="#2F5448" transform="translate(79,89)"/>
<path d="M0 0 C1.32 0.99 2.64 1.98 4 3 C4 4.32 4 5.64 4 7 C4.66 7.33 5.32 7.66 6 8 C5.67 13.61 5.34 19.22 5 25 C4.34 25 3.68 25 3 25 C3.061875 25.928125 3.12375 26.85625 3.1875 27.8125 C3 31 3 31 0 34 C0 22.78 0 11.56 0 0 Z " fill="#1D6355" transform="translate(191,103)"/>
<path d="M0 0 C2.56687367 3.8503105 1.83288724 5.58569763 1 10 C0.01 10.33 -0.98 10.66 -2 11 C-2.33 11.66 -2.66 12.32 -3 13 C-5.0625 14.125 -5.0625 14.125 -7 15 C-7 14.34 -7 13.68 -7 13 C-8.32 13.33 -9.64 13.66 -11 14 C-11.69959727 8.84047012 -11.69959727 8.84047012 -11 6 C-7.83915052 2.96440563 -4.11416261 1.37138754 0 0 Z " fill="#035341" transform="translate(111,86)"/>
<path d="M0 0 C0.33 0 0.66 0 1 0 C1 3.3 1 6.6 1 10 C1.66 10 2.32 10 3 10 C3 20.56 3 31.12 3 42 C2.01 42 1.02 42 0 42 C0 28.14 0 14.28 0 0 Z " fill="#357D65" transform="translate(73,106)"/>
<path d="M0 0 C3.25 0.0625 3.25 0.0625 7 1 C10.16642723 5.24967865 11.48072458 8.67742699 12 14 C11.01 14.495 11.01 14.495 10 15 C9.34 14.67 8.68 14.34 8 14 C7.67 14.66 7.34 15.32 7 16 C5.82558465 13.89983377 4.66035988 11.79541245 3.5 9.6875 C3.16613281 9.09259766 2.83226563 8.49769531 2.48828125 7.88476562 C0.93174886 5.04171156 0 3.29339012 0 0 Z " fill="#0D5440" transform="translate(101,169)"/>
<path d="M0 0 C0.33 0.66 0.66 1.32 1 2 C0.67 2.66 0.34 3.32 0 4 C-0.15469367 6.17674783 -0.25002106 8.3578348 -0.31640625 10.5390625 C-0.35830078 11.84101562 -0.40019531 13.14296875 -0.44335938 14.484375 C-0.48317299 15.86458045 -0.52288522 17.24478883 -0.5625 18.625 C-0.60569407 20.01303415 -0.64930865 21.40105528 -0.69335938 22.7890625 C-0.79972 26.19260256 -0.90174714 29.59621778 -1 33 C-1.99 32.67 -2.98 32.34 -4 32 C-4.09893453 27.92503897 -4.17149694 23.85054344 -4.21972656 19.7746582 C-4.23983275 18.38846662 -4.26712245 17.00235975 -4.30175781 15.61645508 C-4.35031225 13.62358094 -4.37083972 11.63008611 -4.390625 9.63671875 C-4.41157227 8.43748779 -4.43251953 7.23825684 -4.45410156 6.00268555 C-4 3 -4 3 -1.97558594 1.08520508 C-1.32364258 0.7270874 -0.67169922 0.36896973 0 0 Z " fill="#164D3F" transform="translate(80,115)"/>
<path d="M0 0 C4.75 0.75 4.75 0.75 7 3 C6.9375 5.5 6.9375 5.5 6 8 C1.62426555 10.96420721 -3.92617738 10.17733749 -9 10 C-8.34 9.67 -7.68 9.34 -7 9 C-6.67 8.01 -6.34 7.02 -6 6 C-5.01 5.67 -4.02 5.34 -3 5 C-3.99 4.34 -4.98 3.68 -6 3 C-4.35 3 -2.7 3 -1 3 C-0.67 2.01 -0.34 1.02 0 0 Z " fill="#15533F" transform="translate(230,184)"/>
<path d="M0 0 C1.99954746 -0.04254356 4.00041636 -0.04080783 6 0 C7 1 7 1 7.11352539 3.40844727 C7.10567017 4.97163696 7.10567017 4.97163696 7.09765625 6.56640625 C7.09282227 8.2534668 7.09282227 8.2534668 7.08789062 9.97460938 C7.07951172 11.15861328 7.07113281 12.34261719 7.0625 13.5625 C7.05798828 14.75037109 7.05347656 15.93824219 7.04882812 17.16210938 C7.03699675 20.10812226 7.02051287 23.05403681 7 26 C6.01 26 5.02 26 4 26 C4 17.75 4 9.5 4 1 C2.68 0.67 1.36 0.34 0 0 Z " fill="#1E4E40" transform="translate(60,169)"/>
<path d="M0 0 C0.33 1.32 0.66 2.64 1 4 C0.030625 4.639375 -0.93875 5.27875 -1.9375 5.9375 C-4.87078672 8.32554048 -5.49170548 10.07390426 -5.875 13.8125 C-5.94326031 15.20728577 -5.99391529 16.60355817 -6 18 C-7.32 17.34 -8.64 16.68 -10 16 C-10.5118855 12.8647013 -10.66166374 10.1206827 -10 7 C-7.53697143 3.8959092 -4.18698686 0 0 0 Z " fill="#2B7456" transform="translate(202,86)"/>
<path d="M0 0 C0.99 0.33 1.98 0.66 3 1 C2.01 1.495 2.01 1.495 1 2 C1.0721875 2.71542969 1.144375 3.43085937 1.21875 4.16796875 C1.74098848 9.77477905 2.12246894 15.36950351 2.25 21 C2.27578125 22.051875 2.3015625 23.10375 2.328125 24.1875 C1.95414829 27.39301468 0.99181839 28.54408135 -1 31 C-1.02465622 26.74585377 -1.04283899 22.49174502 -1.05493164 18.23754883 C-1.05997101 16.78929927 -1.06680253 15.34105483 -1.07543945 13.89282227 C-1.08752247 11.81525412 -1.09323211 9.73775303 -1.09765625 7.66015625 C-1.10289307 6.40855713 -1.10812988 5.15695801 -1.11352539 3.86743164 C-1 1 -1 1 0 0 Z " fill="#12675B" transform="translate(185,98)"/>
<path d="M0 0 C4.37153769 1.36610553 7.4423354 3.77365029 11 6.54296875 C13.51032718 8.37178133 16.21468568 9.64131009 19 11 C19.33 11.66 19.66 12.32 20 13 C19.01 13 18.02 13 17 13 C16.67 14.65 16.34 16.3 16 18 C15.34 17.34 14.68 16.68 14 16 C13.01 16.66 12.02 17.32 11 18 C10.67 14.37 10.34 10.74 10 7 C8.63875 6.5978125 8.63875 6.5978125 7.25 6.1875 C4.27008166 5.09868368 2.31409641 4.13608899 0 2 C0 1.34 0 0.68 0 0 Z " fill="#18534A" transform="translate(204,86)"/>
<path d="M0 0 C2.35981813 0.93578995 4.69631264 1.93347808 7 3 C6.0409375 3.2165625 6.0409375 3.2165625 5.0625 3.4375 C3.02454854 3.81007181 3.02454854 3.81007181 2 5 C1.84344973 6.48638992 1.74933057 7.97949127 1.68359375 9.47265625 C1.64169922 10.37177734 1.59980469 11.27089844 1.55664062 12.19726562 C1.49766602 13.61555664 1.49766602 13.61555664 1.4375 15.0625 C1.37272461 16.4865918 1.37272461 16.4865918 1.30664062 17.93945312 C1.20020724 20.29281353 1.09818992 22.64628354 1 25 C0.34 25 -0.32 25 -1 25 C-1 18.07 -1 11.14 -1 4 C-1.66 4 -2.32 4 -3 4 C-2.67 3.01 -2.34 2.02 -2 1 C-1.34 0.67 -0.68 0.34 0 0 Z " fill="#2B7566" transform="translate(79,89)"/>
<path d="M0 0 C2.64 0 5.28 0 8 0 C7.67 2.64 7.34 5.28 7 8 C5.02 7.34 3.04 6.68 1 6 C1 6.99 1 7.98 1 9 C0.01 8.67 -0.98 8.34 -2 8 C-1.125 2.25 -1.125 2.25 0 0 Z " fill="#246550" transform="translate(148,169)"/>
<path d="M0 0 C0.99 0 1.98 0 3 0 C3.66 1.98 4.32 3.96 5 6 C3.68 5.67 2.36 5.34 1 5 C1 19.52 1 34.04 1 49 C0.67 49 0.34 49 0 49 C0 32.83 0 16.66 0 0 Z " fill="#237A66" transform="translate(65,98)"/>
<path d="M0 0 C1.98 0 3.96 0 6 0 C6 0.99 6 1.98 6 3 C5.34 3 4.68 3 4 3 C4.66 5.97 5.32 8.94 6 12 C5.34 12 4.68 12 4 12 C4 15.3 4 18.6 4 22 C3.67 22 3.34 22 3 22 C2.67 20.35 2.34 18.7 2 17 C1.01 16.67 0.02 16.34 -1 16 C-0.67 14.68 -0.34 13.36 0 12 C0.99 12 1.98 12 3 12 C3 9.36 3 6.72 3 4 C1.68 4 0.36 4 -1 4 C-0.67 2.68 -0.34 1.36 0 0 Z " fill="#32695B" transform="translate(166,92)"/>
<path d="M0 0 C0.33 0 0.66 0 1 0 C1 14.52 1 29.04 1 44 C1.66 44.33 2.32 44.66 3 45 C0.625 45.625 0.625 45.625 -2 46 C-2.66 45.34 -3.32 44.68 -4 44 C-4 43.01 -4 42.02 -4 41 C-3.34 41 -2.68 41 -2 41 C-1.67 41.66 -1.34 42.32 -1 43 C-0.67 28.81 -0.34 14.62 0 0 Z " fill="#277264" transform="translate(188,103)"/>
<path d="M0 0 C0.99 0.66 1.98 1.32 3 2 C3.1875 4.625 3.1875 4.625 3 7 C0.525 6.01 0.525 6.01 -2 5 C-2 4.34 -2 3.68 -2 3 C-3.051875 3.2165625 -3.051875 3.2165625 -4.125 3.4375 C-7.07556141 4.01478375 -10.03270151 4.51695141 -13 5 C-6.669386 -1.4972091 -6.669386 -1.4972091 0 0 Z " fill="#2B5746" transform="translate(95,110)"/>
<path d="M0 0 C0.33 0.66 0.66 1.32 1 2 C-2.46222615 3.06723961 -5.64039266 3.10173486 -9.25 3.0625 C-10.32765625 3.05347656 -11.4053125 3.04445312 -12.515625 3.03515625 C-13.33546875 3.02355469 -14.1553125 3.01195312 -15 3 C-15 1.68 -15 0.36 -15 -1 C-9.73629256 -2.34966857 -5.07513384 -1.82704818 0 0 Z " fill="#044536" transform="translate(43,145)"/>
<path d="M0 0 C0.66 0 1.32 0 2 0 C2.94987878 2.84963633 3.09747457 4.44237491 3.02172852 7.37963867 C3.00163223 8.26032516 2.98153595 9.14101166 2.96083069 10.04838562 C2.93379562 10.99534805 2.90676056 11.94231049 2.87890625 12.91796875 C2.85529526 13.89034988 2.83168427 14.86273102 2.80735779 15.86457825 C2.73074376 18.97236817 2.64670945 22.0799075 2.5625 25.1875 C2.50927707 27.2936075 2.45653668 29.39972726 2.40429688 31.50585938 C2.27513159 36.67073181 2.1393108 41.83539166 2 47 C1.67 47 1.34 47 1 47 C0.67 31.49 0.34 15.98 0 0 Z " fill="#0E5E4F" transform="translate(186,100)"/>
<path d="M0 0 C0.66 0 1.32 0 2 0 C2 0.99 2 1.98 2 3 C2.66 3.33 3.32 3.66 4 4 C3.67 9.61 3.34 15.22 3 21 C2.01 21.33 1.02 21.66 0 22 C0 14.74 0 7.48 0 0 Z " fill="#377B69" transform="translate(193,107)"/>
<path d="M0 0 C1.98 0 3.96 0 6 0 C5.34 0.66 4.68 1.32 4 2 C4.33 2.33 4.66 2.66 5 3 C6.32460595 10.94763571 6.79317429 19.10149421 5 27 C4.67 27 4.34 27 4 27 C4 19.41 4 11.82 4 4 C2.68 4 1.36 4 0 4 C0 2.68 0 1.36 0 0 Z " fill="#33695A" transform="translate(165,118)"/>
<path d="M0 0 C0.66 0.33 1.32 0.66 2 1 C2 2.98 2 4.96 2 7 C-1.39392651 8.13130884 -4.05334872 8.1329194 -7.625 8.125 C-8.79289063 8.12757813 -9.96078125 8.13015625 -11.1640625 8.1328125 C-14 8 -14 8 -15 7 C-15.04063832 5.33382885 -15.042721 3.66611905 -15 2 C-14.67 3.32 -14.34 4.64 -14 6 C-9.71 6 -5.42 6 -1 6 C-1 4.35 -1 2.7 -1 1 C-0.67 0.67 -0.34 0.34 0 0 Z " fill="#0E4C3D" transform="translate(261,188)"/>
<path d="M0 0 C1.32 0 2.64 0 4 0 C4 0.66 4 1.32 4 2 C4.99 2.33 5.98 2.66 7 3 C7 3.66 7 4.32 7 5 C5.02 5 3.04 5 1 5 C1 10.61 1 16.22 1 22 C0.67 22 0.34 22 0 22 C0 16.06 0 10.12 0 4 C-0.66 4 -1.32 4 -2 4 C-1.34 2.68 -0.68 1.36 0 0 Z " fill="#2C745F" transform="translate(87,172)"/>
<path d="M0 0 C2.11723381 0.36911329 4.22018847 0.82142355 6.3125 1.3125 C7.46363281 1.57675781 8.61476562 1.84101562 9.80078125 2.11328125 C12.45758171 2.8496594 14.6148045 3.6513339 17 5 C17 5.66 17 6.32 17 7 C16.12988281 6.7834375 16.12988281 6.7834375 15.2421875 6.5625 C10.73340325 5.49110572 6.66945753 4.76054064 2 5 C2 4.01 2 3.02 2 2 C1.01 1.67 0.02 1.34 -1 1 C-0.67 0.67 -0.34 0.34 0 0 Z " fill="#1A5848" transform="translate(161,77)"/>
<path d="M0 0 C0.33 0 0.66 0 1 0 C1 8.25 1 16.5 1 25 C-0.32 24.67 -1.64 24.34 -3 24 C-3 22.35 -3 20.7 -3 19 C-2.01 19 -1.02 19 0 19 C0 12.73 0 6.46 0 0 Z " fill="#498970" transform="translate(212,124)"/>
<path d="M0 0 C0.33 0 0.66 0 1 0 C1 4.29 1 8.58 1 13 C0.67 13 0.34 13 0 13 C0 11.35 0 9.7 0 8 C-0.99 8 -1.98 8 -3 8 C-3 9.65 -3 11.3 -3 13 C-5 10 -5 10 -4.625 7.8125 C-4.41875 7.214375 -4.2125 6.61625 -4 6 C-4.99 6.33 -5.98 6.66 -7 7 C-6.67 6.01 -6.34 5.02 -6 4 C-4.02 4 -2.04 4 0 4 C0 2.68 0 1.36 0 0 Z " fill="#3D7A67" transform="translate(116,68)"/>
<path d="M0 0 C1.32 1.32 2.64 2.64 4 4 C3.34 4 2.68 4 2 4 C2 8.95 2 13.9 2 19 C1.34 18.67 0.68 18.34 0 18 C0 12.06 0 6.12 0 0 Z " fill="#1A5246" transform="translate(191,103)"/>
<path d="M0 0 C0.99 0 1.98 0 3 0 C3 3.3 3 6.6 3 10 C-0.40931897 11.13643966 -1.00335456 10.86747764 -4.1875 9.5625 C-4.90292969 9.27503906 -5.61835938 8.98757812 -6.35546875 8.69140625 C-6.89816406 8.46324219 -7.44085938 8.23507813 -8 8 C-7.01 7.34 -6.02 6.68 -5 6 C-2.3125 6.875 -2.3125 6.875 0 8 C0 5.36 0 2.72 0 0 Z " fill="#194036" transform="translate(181,86)"/>
<path d="M0 0 C0 2.62834278 -0.19789762 5.08186701 -0.5 7.6875 C-0.5928125 8.49574219 -0.685625 9.30398437 -0.78125 10.13671875 C-0.8534375 10.75160156 -0.925625 11.36648437 -1 12 C-2.32 11.34 -3.64 10.68 -5 10 C-5.3125 7.25 -5.3125 7.25 -5 4 C-2.5 1.625 -2.5 1.625 0 0 Z " fill="#527567" transform="translate(197,92)"/>
<path d="M0 0 C0.66 0 1.32 0 2 0 C2.51211281 6.40141012 2.11888494 9.98010898 -2 15 C-2.99 14.67 -3.98 14.34 -5 14 C-4.34 12.68 -3.68 11.36 -3 10 C-2.01 10 -1.02 10 0 10 C0 6.7 0 3.4 0 0 Z " fill="#25644D" transform="translate(186,178)"/>
<path d="M0 0 C2.97 0 5.94 0 9 0 C8.25 4.75 8.25 4.75 6 7 C5.34 5.68 4.68 4.36 4 3 C3.34 3 2.68 3 2 3 C2 3.66 2 4.32 2 5 C1.34 5 0.68 5 0 5 C0 3.35 0 1.7 0 0 Z " fill="#2D6851" transform="translate(117,169)"/>
<path d="M0 0 C0.79921875 0.01804688 1.5984375 0.03609375 2.421875 0.0546875 C3.02515625 0.07789063 3.6284375 0.10109375 4.25 0.125 C4.25 0.785 4.25 1.445 4.25 2.125 C0.95 2.125 -2.35 2.125 -5.75 2.125 C-6.41 3.445 -7.07 4.765 -7.75 6.125 C-8.74 6.125 -9.73 6.125 -10.75 6.125 C-9.79632051 3.74080127 -9.17010128 2.39032713 -6.96875 1 C-4.47106748 0.01499844 -2.6723318 -0.07859799 0 0 Z " fill="#246852" transform="translate(37.75,168.875)"/>
<path d="M0 0 C0.66 0 1.32 0 2 0 C2.1953125 2.05078125 2.390625 4.1015625 2.5859375 6.15234375 C2.72257812 6.76207031 2.85921875 7.37179688 3 8 C3.66 8.33 4.32 8.66 5 9 C5.625 11.5625 5.625 11.5625 6 14 C2.83884224 12.63016497 2.0072908 12.0109362 0 9 C-0.1953125 6.73828125 -0.1953125 6.73828125 -0.125 4.3125 C-0.10695313 3.50425781 -0.08890625 2.69601563 -0.0703125 1.86328125 C-0.04710938 1.24839844 -0.02390625 0.63351563 0 0 Z " fill="#286453" transform="translate(24,178)"/>
<path d="M0 0 C2.97 0 5.94 0 9 0 C9 0.66 9 1.32 9 2 C6.36 2 3.72 2 1 2 C1 2.66 1 3.32 1 4 C3.64 4 6.28 4 9 4 C9 4.33 9 4.66 9 5 C5.7 5 2.4 5 -1 5 C-0.67 3.35 -0.34 1.7 0 0 Z " fill="#2C6C58" transform="translate(252,184)"/>
<path d="M0 0 C3.0625 1.5 3.0625 1.5 5 3 C4.67 3.99 4.34 4.98 4 6 C3.443125 5.525625 2.88625 5.05125 2.3125 4.5625 C-1.3453844 2.09095649 -3.96366441 1.86312549 -8.3125 2.4375 C-9.6428125 2.7159375 -9.6428125 2.7159375 -11 3 C-11 2.34 -11 1.68 -11 1 C-7.56143022 -0.71928489 -3.76751104 -0.38974252 0 0 Z " fill="#1F5B49" transform="translate(230,169)"/>
<path d="M0 0 C0.66 0 1.32 0 2 0 C2.33 4.62 2.66 9.24 3 14 C2.01 14 1.02 14 0 14 C-1.33257403 4.58997722 -1.33257403 4.58997722 0 0 Z " fill="#5E8E7D" transform="translate(194,129)"/>
<path d="M0 0 C0.99 0.33 1.98 0.66 3 1 C2.01 1.495 2.01 1.495 1 2 C1.33 5.63 1.66 9.26 2 13 C1.01 13.33 0.02 13.66 -1 14 C-1.02685938 11.85423363 -1.04633088 9.70837355 -1.0625 7.5625 C-1.07410156 6.36753906 -1.08570313 5.17257813 -1.09765625 3.94140625 C-1 1 -1 1 0 0 Z " fill="#377363" transform="translate(185,98)"/>
<path d="M0 0 C1.875 0.25 1.875 0.25 4 1 C5.25 3.0625 5.25 3.0625 6 5 C5.34 5 4.68 5 4 5 C4 6.98 4 8.96 4 11 C3.34 11 2.68 11 2 11 C1.93941406 10.37351562 1.87882813 9.74703125 1.81640625 9.1015625 C1.73261719 8.28429687 1.64882812 7.46703125 1.5625 6.625 C1.48128906 5.81289062 1.40007812 5.00078125 1.31640625 4.1640625 C1.10909886 1.95727195 1.10909886 1.95727195 0 0 Z " fill="#1C5045" transform="translate(195,109)"/>
<path d="M0 0 C1.65 0.99 3.3 1.98 5 3 C4.01 3.33 3.02 3.66 2 4 C1.67 5.65 1.34 7.3 1 9 C0.34 8.34 -0.32 7.68 -1 7 C-1.99 7.495 -1.99 7.495 -3 8 C-3 6.35 -3 4.7 -3 3 C-2.34 3 -1.68 3 -1 3 C-0.67 2.01 -0.34 1.02 0 0 Z " fill="#2A6859" transform="translate(219,95)"/>
<path d="M0 0 C2.1640625 -0.29296875 2.1640625 -0.29296875 4.625 -0.1875 C5.44226563 -0.16042969 6.25953125 -0.13335937 7.1015625 -0.10546875 C8.04128906 -0.05326172 8.04128906 -0.05326172 9 0 C9 0.33 9 0.66 9 1 C6.36 1 3.72 1 1 1 C1 1.66 1 2.32 1 3 C3.31 3 5.62 3 8 3 C4.5647952 5.29013653 3.014669 5.17842973 -1 5 C-1.33 4.34 -1.66 3.68 -2 3 C-1.34 2.01 -0.68 1.02 0 0 Z " fill="#328068" transform="translate(252,175)"/>
<path d="M0 0 C2.75 -0.3125 2.75 -0.3125 6 0 C8.25 2.375 8.25 2.375 10 5 C10.66 5.66 11.32 6.32 12 7 C11.625 9.125 11.625 9.125 11 11 C8.73661664 9.05995712 7.8542992 7.66886183 6.625 4.875 C5.29158127 1.76031275 5.29158127 1.76031275 2.3125 1.125 C1.1678125 1.063125 1.1678125 1.063125 0 1 C0 0.67 0 0.34 0 0 Z " fill="#2E6B58" transform="translate(103,169)"/>
<path d="M0 0 C0.66 0 1.32 0 2 0 C2.22786458 2.01822917 2.45572917 4.03645833 2.68359375 6.0546875 C2.91292961 8.07404316 2.91292961 8.07404316 4 10 C2.1875 10.625 2.1875 10.625 0 11 C-0.99 10.34 -1.98 9.68 -3 9 C-1.68 9 -0.36 9 1 9 C0.649375 8.2575 0.29875 7.515 -0.0625 6.75 C-1.04509293 3.8677274 -1.0326802 2.78823655 0 0 Z " fill="#185144" transform="translate(197,138)"/>
<path d="M0 0 C0.99 0.33 1.98 0.66 3 1 C2.67 3.31 2.34 5.62 2 8 C-0.97 8 -3.94 8 -7 8 C-7 7.67 -7 7.34 -7 7 C-3.535 6.505 -3.535 6.505 0 6 C0 4.02 0 2.04 0 0 Z " fill="#0C3424" transform="translate(260,169)"/>
<path d="M0 0 C1.8125 1.5625 1.8125 1.5625 3 3 C-3.625 4.125 -3.625 4.125 -7 3 C-7 2.01 -7 1.02 -7 0 C-4.26634878 -1.36682561 -2.89333621 -0.84683011 0 0 Z " fill="#14443C" transform="translate(180,119)"/>
<path d="M0 0 C6.38342541 0.60220994 6.38342541 0.60220994 8.9375 2.25 C10.35440053 4.58371852 10.21718696 6.32136078 10 9 C9.34 9 8.68 9 8 9 C7.71125 8.21625 7.4225 7.4325 7.125 6.625 C5.51781271 2.87489633 3.58162431 1.67142468 0 0 Z " fill="#296E57" transform="translate(172,175)"/>
<path d="M0 0 C-1.24976756 3.65316671 -1.67098753 4.78065836 -5 7 C-5.33 5.02 -5.66 3.04 -6 1 C-3.92446352 0.4465236 -2.15634036 0 0 0 Z " fill="#0B5844" transform="translate(140,169)"/>
<path d="M0 0 C1.98 0 3.96 0 6 0 C5.34 0.66 4.68 1.32 4 2 C4.33 2.33 4.66 2.66 5 3 C5.14115161 5.67058851 5.04247107 8.32432238 5 11 C4.67 11 4.34 11 4 11 C4 8.69 4 6.38 4 4 C2.68 4 1.36 4 0 4 C0 2.68 0 1.36 0 0 Z " fill="#587F76" transform="translate(165,118)"/>
<path d="M0 0 C0.33 0 0.66 0 1 0 C1 5.28 1 10.56 1 16 C0.01 16.33 -0.98 16.66 -2 17 C-2 15.35 -2 13.7 -2 12 C-1.34 12 -0.68 12 0 12 C0 8.04 0 4.08 0 0 Z " fill="#266554" transform="translate(211,106)"/>
<path d="M0 0 C0.721875 0.268125 1.44375 0.53625 2.1875 0.8125 C2.1875 1.4725 2.1875 2.1325 2.1875 2.8125 C-1.115814 3.70185377 -4.43544375 4.27524105 -7.8125 4.8125 C-3.50480769 -0.23365385 -3.50480769 -0.23365385 0 0 Z " fill="#185F4B" transform="translate(89.8125,110.1875)"/>
<path d="M0 0 C1.32 0 2.64 0 4 0 C4 3.3 4 6.6 4 10 C3.67 10 3.34 10 3 10 C2.67 8.35 2.34 6.7 2 5 C1.01 4.67 0.02 4.34 -1 4 C-0.67 2.68 -0.34 1.36 0 0 Z " fill="#7D988E" transform="translate(166,104)"/>
<path d="M0 0 C2 2 2 2 2 6 C0.35 6 -1.3 6 -3 6 C-2.67 5.01 -2.34 4.02 -2 3 C-2.66 2.67 -3.32 2.34 -4 2 C-2.68 1.34 -1.36 0.68 0 0 Z " fill="#0E4D3F" transform="translate(93,169)"/>
<path d="M0 0 C-0.99 0.495 -0.99 0.495 -2 1 C-2 2.65 -2 4.3 -2 6 C-2.66 6 -3.32 6 -4 6 C-4 4.35 -4 2.7 -4 1 C-5.65 1 -7.3 1 -9 1 C-9 0.67 -9 0.34 -9 0 C-5.62182575 -0.84454356 -3.32534757 -1.10844919 0 0 Z " fill="#0F4637" transform="translate(173,82)"/>
<path d="M0 0 C0.99 0 1.98 0 3 0 C3.66 2.31 4.32 4.62 5 7 C4.01 7 3.02 7 2 7 C0 4 0 4 0 0 Z " fill="#175342" transform="translate(30,180)"/>
<path d="M0 0 C0.66 0 1.32 0 2 0 C2 2.64 2 5.28 2 8 C1.01 8.33 0.02 8.66 -1 9 C-0.67 6.03 -0.34 3.06 0 0 Z " fill="#4E8875" transform="translate(194,120)"/>
<path d="M0 0 C0.99 0 1.98 0 3 0 C2.1875 1.9375 2.1875 1.9375 1 4 C-2.28976808 5.09658936 -3.71303767 4.79953138 -7 4 C-7 3.67 -7 3.34 -7 3 C-5.5459375 2.814375 -5.5459375 2.814375 -4.0625 2.625 C-2.5465625 2.315625 -2.5465625 2.315625 -1 2 C-0.67 1.34 -0.34 0.68 0 0 Z " fill="#154B3D" transform="translate(179,184)"/>
<path d="M0 0 C0.66 0 1.32 0 2 0 C2.66 3.3 3.32 6.6 4 10 C1 8 1 8 0.48828125 6.0546875 C0.32552083 4.03645833 0.16276042 2.01822917 0 0 Z " fill="#1A5F4E" transform="translate(136,182)"/>
<path d="M0 0 C1.32 0.33 2.64 0.66 4 1 C4 2.65 4 4.3 4 6 C2.68 5.67 1.36 5.34 0 5 C0 3.35 0 1.7 0 0 Z " fill="#305742" transform="translate(209,143)"/>
<path d="M0 0 C0.33 0 0.66 0 1 0 C1 2.64 1 5.28 1 8 C1.66 8 2.32 8 3 8 C2.34 9.65 1.68 11.3 1 13 C0.67 13 0.34 13 0 13 C0 8.71 0 4.42 0 0 Z " fill="#083831" transform="translate(163,84)"/>
<path d="M0 0 C0 0.99 0 1.98 0 3 C-0.556875 2.814375 -1.11375 2.62875 -1.6875 2.4375 C-4.399133 1.92448835 -6.34371039 2.3359276 -9 3 C-8 1 -8 1 -5.625 -0.1875 C-3 -1 -3 -1 0 0 Z " fill="#295545" transform="translate(115,85)"/>
<path d="M0 0 C0.94875 0.04125 1.8975 0.0825 2.875 0.125 C2.25625 0.41375 1.6375 0.7025 1 1 C-2.32276568 2.75911124 -3.57723399 4.80835854 -5.125 8.125 C-5.25 5.25 -5.25 5.25 -5.125 2.125 C-3.125 0.125 -3.125 0.125 0 0 Z " fill="#164536" transform="translate(173.125,175.875)"/>
<path d="M0 0 C0.33 1.32 0.66 2.64 1 4 C-1.475 5.485 -1.475 5.485 -4 7 C-3.43628586 3.73045798 -2.50037734 2.17424117 0 0 Z " fill="#214E3F" transform="translate(196,89)"/>
<path d="M0 0 C3.465 1.485 3.465 1.485 7 3 C6.38125 3.144375 5.7625 3.28875 5.125 3.4375 C2.96741678 3.93152225 2.96741678 3.93152225 1 5 C1 4.01 1 3.02 1 2 C-0.32 2.33 -1.64 2.66 -3 3 C-2.01 2.01 -1.02 1.02 0 0 Z " fill="#34685A" transform="translate(79,89)"/>
<path d="M0 0 C1.32 0 2.64 0 4 0 C3.6875 1.875 3.6875 1.875 3 4 C2.01 4.66 1.02 5.32 0 6 C0 4.02 0 2.04 0 0 Z " fill="#06563F" transform="translate(182,178)"/>
<path d="M0 0 C0.66 0.33 1.32 0.66 2 1 C1.1875 2.9375 1.1875 2.9375 0 5 C-0.99 5.33 -1.98 5.66 -3 6 C-2.42655063 3.13275314 -2.1385485 2.1385485 0 0 Z " fill="#10513E" transform="translate(166,171)"/>
<path d="M0 0 C2.62187494 1.04874998 3.79371361 1.64931313 5.25 4.125 C5.4975 4.74375 5.745 5.3625 6 6 C4.68 6.33 3.36 6.66 2 7 C1.7834375 5.824375 1.7834375 5.824375 1.5625 4.625 C1.12201075 2.03578982 1.12201075 2.03578982 0 0 Z " fill="#286751" transform="translate(44,171)"/>
<path d="M0 0 C1.98 0 3.96 0 6 0 C5.67 0.99 5.34 1.98 5 3 C3.35 3 1.7 3 0 3 C0 2.01 0 1.02 0 0 Z " fill="#105B4C" transform="translate(29,144)"/>
<path d="M0 0 C2.475 0.495 2.475 0.495 5 1 C5 2.32 5 3.64 5 5 C3.35 4.67 1.7 4.34 0 4 C0 2.68 0 1.36 0 0 Z " fill="#206F5B" transform="translate(193,142)"/>
<path d="M0 0 C0.66 0.33 1.32 0.66 2 1 C2 3.31 2 5.62 2 8 C1.01 8 0.02 8 -1 8 C-0.67 5.36 -0.34 2.72 0 0 Z " fill="#216253" transform="translate(185,124)"/>
<path d="" fill="#000000" transform="translate(0,0)"/>
<path d="" fill="#000000" transform="translate(0,0)"/>
</svg>
